<svg width="30" height="30" viewBox="0 0 30 30" fill="none" xmlns="http://www.w3.org/2000/svg">
<path d="M0 14.5131V14.4706C0.376569 9.54841 2.13389 5.85676 5.18828 3.52295C8.20084 1.14671 11.4644 0.00102678 15.0209 0.00102678C18.7448 -0.041406 22.2176 1.23158 25.3138 3.77755C28.4519 6.28109 30 10.0152 30 14.8525V15.1495C30 20.0293 28.4519 23.6785 25.3138 26.1821C22.1757 28.728 18.7029 30.001 14.9791 30.001H14.8117C11.1715 29.9586 7.82427 28.6856 4.72803 26.1396C1.6318 23.6361 0.041841 19.7747 0 14.5131ZM14.1004 7.8511V1.14671H13.0962C12.887 1.40131 12.7197 1.69834 12.5523 1.95294C12.3849 2.20753 12.2176 2.46213 12.0502 2.75916C11.8828 3.01376 11.6736 3.35322 11.5481 3.60782C11.3808 3.86241 11.2552 4.11701 11.1297 4.41404C10.8787 4.83837 10.6695 5.2627 10.5021 5.64459C10.2929 6.02649 10.1255 6.40838 10 6.74785C10.251 6.91758 10.5439 7.12974 10.8787 7.25704C11.2552 7.38434 11.6318 7.51164 12.0084 7.5965C12.4268 7.68137 12.8033 7.7238 13.1381 7.76623C13.5146 7.80867 13.8494 7.8511 14.1004 7.8511ZM15.8577 1.14671V7.80867C16.0669 7.80867 16.318 7.8511 16.569 7.80867C16.8201 7.80867 17.113 7.76623 17.364 7.7238C17.8243 7.63894 18.3682 7.51164 18.7866 7.38434C19.2469 7.21461 19.6653 7.00244 19.9582 6.74785C19.4561 5.51729 18.9121 4.54134 18.3682 3.60782C17.8243 2.67429 17.1967 1.86807 16.5272 1.18915V1.14671H15.8577ZM11.3389 1.52861V1.48618C11.046 1.61347 10.7531 1.82564 10.4184 1.95294C10.1255 2.08024 9.74895 2.24997 9.45607 2.4197C8.87029 2.71673 8.28452 3.05619 7.69874 3.43809C7.15481 3.81998 6.61088 4.24431 6.15063 4.66864C6.31799 4.83837 6.5272 5.0081 6.69456 5.1354C6.86192 5.2627 7.07113 5.43243 7.28033 5.60216C7.4477 5.68703 7.6569 5.81432 7.86611 5.98406C8.07531 6.11135 8.32636 6.28109 8.57741 6.45082C8.91213 5.68703 9.24686 4.8808 9.66527 4.15944C10.0837 3.39565 10.5439 2.67429 11.0042 2.0378C11.046 1.95294 11.0879 1.86807 11.1715 1.78321C11.2134 1.74077 11.2552 1.61347 11.3389 1.52861ZM24.1423 4.66864V4.6262C23.0962 3.81998 22.1757 3.14106 21.2552 2.71673C20.3347 2.2924 19.4142 1.86807 18.5774 1.52861C19.2469 2.20753 19.8326 3.05619 20.2092 3.86241C20.6276 4.71107 21.046 5.60216 21.3808 6.45082C21.5481 6.36595 21.7573 6.28109 22.0084 6.11135C22.2176 5.98406 22.5105 5.85676 22.7615 5.72946C23.0126 5.55973 23.2218 5.39 23.4728 5.22026C23.7238 5.0081 23.9749 4.83837 24.1423 4.66864ZM23.431 14.1312H28.2427C28.2427 12.5611 27.9079 11.076 27.2803 9.54841C26.6946 8.06326 25.8577 6.83271 24.8117 5.77189V5.72946C24.6025 6.06892 24.3096 6.36595 24.0167 6.57811C23.682 6.79028 23.3891 6.96001 23.0544 7.12974C22.8452 7.25704 22.636 7.42677 22.4268 7.51164C22.2176 7.63894 21.9247 7.7238 21.7155 7.8511C21.8828 8.19056 22.0502 8.57246 22.2176 8.91192C22.3431 9.29382 22.5523 9.71814 22.636 10.1C22.887 10.779 23.0544 11.5003 23.2218 12.2217C23.3473 12.8582 23.431 13.5371 23.431 14.1312ZM8.28452 7.8511V7.80867C7.94979 7.63894 7.57322 7.51164 7.28033 7.34191C6.98745 7.12974 6.69456 6.91758 6.44351 6.74785C6.19247 6.62055 5.94142 6.45082 5.73222 6.28109C5.52301 6.11135 5.35565 5.94162 5.18828 5.77189C4.10042 6.83271 3.30544 8.02083 2.80335 9.42111C2.25941 10.8214 1.88285 12.3914 1.71548 14.0887H6.86192C6.86192 12.9006 7.02929 11.7549 7.32218 10.6092C7.57322 9.42111 7.94979 8.53002 8.28452 7.8511ZM14.1004 14.0887V9.20895C13.7657 9.25138 13.3473 9.25138 12.9707 9.20895C12.5523 9.16652 12.1339 9.03922 11.7573 8.91192C11.4226 8.82705 11.0042 8.74219 10.6695 8.61489C10.2929 8.53002 9.91632 8.36029 9.62343 8.19056C9.37239 8.61489 9.16318 9.12408 8.99582 9.67571C8.78661 10.1849 8.66109 10.7365 8.53556 11.2457C8.45188 11.7549 8.41004 12.3065 8.3682 12.7733C8.32636 13.2401 8.28452 13.7068 8.28452 14.0887H14.1004ZM15.8577 9.29382V14.0887H22.0502C22.0502 13.8341 22.0502 13.5371 22.0084 13.1976C21.9247 12.9006 21.8828 12.5187 21.841 12.1792C21.7155 11.6701 21.59 11.1184 21.4226 10.6092C21.2552 10.1425 21.0879 9.67571 20.8787 9.29382C20.795 9.08165 20.7113 8.82705 20.6276 8.65732C20.5021 8.44516 20.3766 8.31786 20.2929 8.19056C19.8326 8.53002 19.205 8.74219 18.4519 8.91192C17.7406 9.08165 16.9038 9.25138 16.1506 9.29382H15.8577ZM6.86192 15.489H1.71548C1.71548 16.2104 1.841 17.0166 2.05021 17.9925C2.25941 19.0109 2.67782 19.9445 3.13808 20.9628C3.34728 21.472 3.59833 21.9812 3.84937 22.4904C4.14226 22.9572 4.47699 23.4664 4.81172 23.9331C5.06276 23.7634 5.31381 23.6361 5.52301 23.5088C5.77406 23.3815 6.06695 23.2118 6.31799 23.0845C6.61088 22.9572 6.90377 22.8299 7.23849 22.6602C7.53138 22.5329 7.90795 22.3631 8.28452 22.1934C7.94979 21.1326 7.57322 20.1142 7.32218 18.9685C7.02929 17.8652 6.86192 16.762 6.86192 15.5314V15.489ZM14.1004 20.4536V15.489H8.28452C8.28452 15.8285 8.32636 16.3377 8.41004 16.8469C8.45188 17.3561 8.57741 17.9077 8.66109 18.4593C8.82845 19.0534 8.95397 19.6474 9.12134 20.1566C9.2887 20.6658 9.45607 21.0901 9.62343 21.472C10.3766 21.175 11.1297 20.9628 11.6318 20.8355C12.1757 20.6658 12.6778 20.5385 13.1799 20.4961H13.6402C13.8075 20.4536 13.9749 20.4536 14.1004 20.4536ZM15.8577 15.489V20.4112C16.1506 20.4536 16.4854 20.4961 16.8201 20.5385C17.1967 20.5809 17.6569 20.6658 18.0335 20.7507L18.6611 20.878C18.8703 20.9628 19.1213 21.0053 19.3305 21.0477C19.5816 21.1326 19.8326 21.175 20.0837 21.2599C20.2929 21.3447 20.5021 21.3872 20.6695 21.472C21.2134 20.0718 21.5481 18.9261 21.7573 17.9501C21.9665 17.0166 22.0502 16.2104 22.0502 15.5314V15.489H15.8577ZM28.2427 15.5314V15.489H23.431V15.7436C23.3891 16.5498 23.2636 17.4834 23.0962 18.4593C22.9289 19.3928 22.5523 20.4961 22.0502 21.8539C22.7197 22.1934 23.3473 22.5329 23.8494 22.8723C24.3515 23.2118 24.8117 23.5937 25.1464 23.9331C25.8577 23.2118 26.4854 22.2358 27.0293 20.9628C27.5732 19.7323 27.9498 18.4593 28.159 17.1015C28.2008 16.8469 28.2008 16.5923 28.2427 16.3377V15.5314ZM14.1004 28.431V21.8115C13.0544 21.9812 12.1757 22.1934 11.5063 22.3631C10.8368 22.5329 10.3347 22.7026 10 22.8723C10.251 23.5088 10.5021 24.0604 10.7531 24.5696C11.0042 25.0364 11.2971 25.5456 11.5481 25.9699C11.6318 26.1396 11.7992 26.3094 11.9247 26.5215C12.0502 26.6913 12.1339 26.9034 12.2594 27.0732C12.3849 27.2853 12.5105 27.5399 12.636 27.7945C12.8033 28.0067 12.9289 28.2613 13.0962 28.431H14.1004ZM15.8577 28.431H16.8201C17.1967 28.134 17.5732 27.7097 17.8661 27.2429C18.2008 26.7761 18.5774 26.2245 18.8285 25.7578C19.1213 25.2061 19.4142 24.6969 19.6653 24.1877C19.9163 23.6785 20.1255 23.2118 20.2929 22.8723C19.8326 22.7026 19.205 22.5329 18.5774 22.3631C17.9498 22.1934 17.0711 22.0237 15.8577 21.8539V28.431ZM24.1423 24.9515V24.9091C24.0586 24.7818 23.8912 24.6121 23.7657 24.4848C23.6402 24.3575 23.431 24.1877 23.2218 24.0604C23.0544 23.9331 22.8452 23.8058 22.5941 23.6785C22.3431 23.5512 22.0084 23.3815 21.7155 23.2118C21.5481 23.5512 21.2552 24.1453 20.8368 24.9515C20.4603 25.7578 19.7908 26.7337 18.954 27.7945C20 27.6248 20.9205 27.2429 21.7573 26.7337C22.6778 26.2669 23.4728 25.6305 24.1423 24.9515ZM8.57741 23.5937V23.5512C8.28452 23.721 7.82427 23.9331 7.36402 24.1453C6.86192 24.3575 6.31799 24.6121 5.8159 24.9515C6.10879 25.2061 6.40167 25.4607 6.65272 25.6305C6.90377 25.8426 7.19665 26.0123 7.4477 26.1821C7.90795 26.4791 8.45188 26.7761 8.99582 27.0307C9.53975 27.2853 10.2092 27.5399 11.046 27.7945C10.7531 27.4551 10.5439 27.0307 10.3347 26.6913C10.1255 26.3518 9.87448 26.0123 9.66527 25.6729C9.45607 25.3334 9.2887 24.9515 9.12134 24.6121C8.91213 24.2726 8.74477 23.9331 8.57741 23.5937Z" fill="#048C0B"/>
</svg>
